<?xml version="1.0" standalone="no"?><!DOCTYPE svg PUBLIC "-//W3C//DTD SVG 1.1//EN" "http://www.w3.org/Graphics/SVG/1.1/DTD/svg11.dtd"><svg class="icon" width="200px" height="200.00px" viewBox="0 0 1024 1024" version="1.1" xmlns="http://www.w3.org/2000/svg"><path fill="green" d="M512 512c94.3 0 170.7-76.4 170.7-170.7S606.3 170.7 512 170.7s-170.7 76.4-170.7 170.7S417.7 512 512 512z m0 42.7c-117.8 0-213.3-95.5-213.3-213.3S394.2 128 512 128s213.3 95.5 213.3 213.3S629.8 554.7 512 554.7z"  /><path fill="green" d="M234.7 874.7v-85.3c0-129.6 105.1-234.7 234.7-234.7h85.3c129.6 0 234.7 105.1 234.7 234.7v85.3c0 11.8 9.6 21.3 21.3 21.3 11.8 0 21.3-9.6 21.3-21.3v-85.3C832 636.2 707.8 512 554.7 512h-85.3C316.2 512 192 636.2 192 789.3v85.3c0 11.8 9.6 21.3 21.3 21.3s21.4-9.5 21.4-21.2z"  /></svg>