<?xml version="1.0" standalone="no"?><!DOCTYPE svg PUBLIC "-//W3C//DTD SVG 1.1//EN" "http://www.w3.org/Graphics/SVG/1.1/DTD/svg11.dtd"><svg class="icon" width="200px" height="200.00px" viewBox="0 0 1024 1024" version="1.1" xmlns="http://www.w3.org/2000/svg"><path d="M512 995.555556C244.622222 995.555556 28.444444 779.377778 28.444444 512S244.622222 28.444444 512 28.444444s483.555556 216.177778 483.555556 483.555556-216.177778 483.555556-483.555556 483.555556z m0-56.888889c233.244444 0 426.666667-193.422222 426.666667-426.666667S745.244444 85.333333 512 85.333333 85.333333 278.755556 85.333333 512s193.422222 426.666667 426.666667 426.666667z" fill="green" /><path d="M512 284.444444m-56.888889 0a56.888889 56.888889 0 1 0 113.777778 0 56.888889 56.888889 0 1 0-113.777778 0Z" fill="#999999" /><path d="M580.266667 460.8c17.066667-51.2-22.755556-91.022222-73.955556-73.955556l-119.466667 39.822223 17.066667 51.2 119.466667-39.822223c5.688889 0 5.688889-5.688889 0 0l-85.333334 290.133334c-17.066667 56.888889 28.444444 85.333333 73.955556 56.888889l125.155556-79.644445-34.133334-45.511111-108.088889 68.266667 85.333334-267.377778z" fill="green" /></svg>