<?xml version="1.0" standalone="no"?><!DOCTYPE svg PUBLIC "-//W3C//DTD SVG 1.1//EN" "http://www.w3.org/Graphics/SVG/1.1/DTD/svg11.dtd"><svg class="icon" width="200px" height="166.78px" viewBox="0 0 1228 1024" version="1.1" xmlns="http://www.w3.org/2000/svg"><path d="M1153.706667 477.866667L641.706667 20.48C634.88 13.653333 628.053333 13.653333 621.226667 13.653333c-6.826667 0-20.48 0-27.306667 6.826667L75.093333 477.866667c-40.96 40.96-27.306667 68.266667 27.306667 68.266666H204.8v409.6c0 40.96 27.306667 68.266667 68.266667 68.266667h682.666666c40.96 0 68.266667-27.306667 68.266667-68.266667V546.133333h102.4c54.613333 0 68.266667-27.306667 27.306667-68.266666zM1024 477.866667h-68.266667v477.866666h-204.8V614.4H477.866667v341.333333H273.066667V477.866667H177.493333L614.4 88.746667 1051.306667 477.866667H1024z" fill="#45474E" /><path d="M546.133333 682.666667h136.533334v273.066666H546.133333z" fill="#C7CCD4" /></svg>